<?xml version="1.0" encoding="UTF-8"?>
<!DOCTYPE svg PUBLIC "-//W3C//DTD SVG 1.1//EN" "http://www.w3.org/Graphics/SVG/1.1/DTD/svg11.dtd">
<!-- Creator: CorelDRAW 2020 (64 Bit) -->
<svg xmlns="http://www.w3.org/2000/svg" xml:space="preserve" width="112.353mm" height="35.1398mm" version="1.1" style="shape-rendering:geometricPrecision; text-rendering:geometricPrecision; image-rendering:optimizeQuality; fill-rule:evenodd; clip-rule:evenodd"
viewBox="0 0 35828.39 11205.8"
 xmlns:xlink="http://www.w3.org/1999/xlink"
 xmlns:xodm="http://www.corel.com/coreldraw/odm/2003">
 <defs>
  <style type="text/css">
   <![CDATA[
    .fil0 {fill:#2E4B85}
    .fil5 {fill:#2E4B85;fill-rule:nonzero}
    .fil1 {fill:url(#id0)}
    .fil2 {fill:url(#id1)}
    .fil3 {fill:url(#id2)}
    .fil4 {fill:url(#id3)}
    .fil7 {fill:url(#id4);fill-rule:nonzero}
    .fil6 {fill:url(#id5);fill-rule:nonzero}
   ]]>
  </style>
  <linearGradient id="id0" gradientUnits="userSpaceOnUse" x1="32640.17" y1="6813.7" x2="30915.12" y2="8958.82">
   <stop offset="0" style="stop-opacity:1; stop-color:#2E4B85"/>
   <stop offset="0.415686" style="stop-opacity:1; stop-color:#2E4B85"/>
   <stop offset="0.501961" style="stop-opacity:1; stop-color:#2E4B85"/>
   <stop offset="1" style="stop-opacity:1; stop-color:black"/>
  </linearGradient>
  <linearGradient id="id1" gradientUnits="userSpaceOnUse" xlink:href="#id0" x1="27809.14" y1="4392.13" x2="29534.19" y2="2247.01">
  </linearGradient>
  <linearGradient id="id2" gradientUnits="userSpaceOnUse" x1="32232.79" y1="7025.78" x2="30714.28" y2="40.46">
   <stop offset="0" style="stop-opacity:1; stop-color:#6699FF"/>
   <stop offset="1" style="stop-opacity:1; stop-color:#2E4B85"/>
  </linearGradient>
  <linearGradient id="id3" gradientUnits="userSpaceOnUse" x1="29735.03" y1="11165.37" x2="28216.52" y2="4180.05">
   <stop offset="0" style="stop-opacity:1; stop-color:#2E4B85"/>
   <stop offset="1" style="stop-opacity:1; stop-color:#6699FF"/>
  </linearGradient>
  <linearGradient id="id4" gradientUnits="userSpaceOnUse" x1="12797.17" y1="6447.68" x2="12797.17" y2="11116.32">
   <stop offset="0" style="stop-opacity:0.2; stop-color:#6699FF"/>
   <stop offset="0.501961" style="stop-opacity:1; stop-color:#6699FF"/>
   <stop offset="1" style="stop-opacity:0; stop-color:#6699FF"/>
  </linearGradient>
  <linearGradient id="id5" gradientUnits="userSpaceOnUse" xlink:href="#id4" x1="11788.01" y1="265.03" x2="11788.01" y2="6451.67">
  </linearGradient>
 </defs>
 <g id="Camada_x0020_1">
  <metadata id="CorelCorpID_0Corel-Layer"/>
  <g id="_2131157479984">
   <path class="fil0" d="M30224.66 7672.7l1035.35 1035.35c569.41,569.45 1501.22,569.45 2070.63,0.03l2070.69 -2070.69c569.41,-569.45 569.41,-1501.22 -0.03,-2070.63l-0.03 -0.03c-569.41,-569.45 -1501.18,-569.45 -2070.63,0l-3105.98 3105.98z"/>
   <path class="fil1" d="M30224.66 7672.7l1035.32 1035.35c569.48,569.45 1501.22,569.45 2070.66,0l0 0 -2070.66 -2070.66 -1035.32 1035.32z"/>
   <path class="fil0" d="M30224.66 3533.13l-1035.35 -1035.35c-569.41,-569.45 -1501.22,-569.45 -2070.63,-0.03l-2070.69 2070.69c-569.41,569.45 -569.41,1501.22 0.03,2070.63l0.03 0.03c569.41,569.45 1501.18,569.45 2070.6,0l3106.01 -3105.98z"/>
   <path class="fil2" d="M30224.66 3533.1l-1035.35 -1035.32c-569.45,-569.45 -1501.18,-569.45 -2070.63,0l0 0 2070.63 2070.66 1035.35 -1035.35z"/>
   <path class="fil3" d="M28153.99 1462.47l1035.32 -1035.35c8.93,-8.9 17.89,-17.63 26.98,-26.28 9.06,-8.61 18.21,-17.09 27.46,-25.42 9.25,-8.35 18.56,-16.55 27.97,-24.62 9.41,-8.07 18.88,-15.98 28.45,-23.76 9.57,-7.81 19.23,-15.43 28.92,-22.96 9.73,-7.49 19.52,-14.86 29.37,-22.1 9.85,-7.24 19.77,-14.32 29.78,-21.27l0 0c10.01,-6.95 20.06,-13.74 30.2,-20.44 10.14,-6.66 20.35,-13.2 30.61,-19.61 10.27,-6.38 20.57,-12.63 30.96,-18.75 10.4,-6.12 20.86,-12.12 31.35,-17.95 10.52,-5.84 21.11,-11.51 31.7,-17.09l0 0c10.65,-5.55 21.3,-10.97 32.05,-16.26l0 0c10.75,-5.29 21.53,-10.43 32.34,-15.43l0 0c10.84,-5.01 21.72,-9.85 32.65,-14.57l0 -0.03c10.94,-4.72 21.91,-9.28 32.91,-13.74l0 0c11.03,-4.46 22.1,-8.77 33.2,-12.92l0 -0.03c11.13,-4.18 22.26,-8.2 33.45,-12.09l0 0c11.19,-3.89 22.42,-7.65 33.68,-11.26 11.29,-3.64 22.55,-7.08 33.87,-10.43 11.35,-3.35 22.74,-6.54 34.12,-9.6 11.38,-3.06 22.8,-5.96 34.25,-8.74 11.45,-2.81 22.93,-5.42 34.44,-7.94 11.51,-2.49 23.02,-4.85 34.6,-7.08l0 0c11.54,-2.23 23.12,-4.31 34.7,-6.28 11.61,-1.95 23.22,-3.73 34.85,-5.39 11.61,-1.69 23.28,-3.22 34.92,-4.59l0 -0.03c11.67,-1.37 23.34,-2.61 35.01,-3.73 11.7,-1.12 23.41,-2.07 35.08,-2.93 11.74,-0.83 23.44,-1.53 35.14,-2.07 11.7,-0.57 23.44,-0.96 35.17,-1.24 11.74,-0.29 23.44,-0.45 35.17,-0.45 11.74,0 23.47,0.16 35.17,0.45 11.74,0.29 23.47,0.67 35.17,1.24 11.74,0.54 23.44,1.24 35.14,2.07 11.7,0.86 23.41,1.82 35.08,2.93 11.67,1.12 23.37,2.36 35.01,3.73l0 0.03c11.67,1.37 23.31,2.9 34.95,4.59 11.61,1.66 23.22,3.44 34.82,5.39 11.61,1.98 23.15,4.05 34.73,6.28l0 0c11.54,2.23 23.06,4.59 34.57,7.08 11.51,2.52 22.99,5.13 34.44,7.94 11.48,2.77 22.86,5.68 34.28,8.74 11.38,3.06 22.77,6.25 34.09,9.6 11.32,3.35 22.61,6.79 33.87,10.43 11.26,3.6 22.51,7.37 33.68,11.26l0 0c11.19,3.89 22.35,7.91 33.45,12.09l0 0.03c11.13,4.15 22.16,8.45 33.2,12.92l0 0c11.03,4.46 22,9.02 32.94,13.74l0 0.03c10.94,4.72 21.78,9.57 32.62,14.57l0 0c10.84,5.01 21.62,10.14 32.34,15.43l0 0c10.75,5.29 21.43,10.71 32.05,16.26l0 0c10.62,5.58 21.17,11.26 31.7,17.09 10.52,5.84 20.95,11.83 31.35,17.95 10.4,6.12 20.73,12.37 31,18.75 10.24,6.41 20.44,12.95 30.58,19.61 10.14,6.66 20.22,13.49 30.2,20.44l0 0c10.01,6.95 19.93,14.03 29.82,21.27 9.85,7.24 19.64,14.61 29.34,22.1 9.73,7.53 19.36,15.15 28.92,22.96 9.57,7.78 19.04,15.69 28.45,23.76 9.41,8.07 18.72,16.26 27.97,24.62 9.25,8.32 18.4,16.81 27.49,25.42 9.06,8.64 18.05,17.38 26.95,26.28l4141.32 4141.32c569.41,569.45 569.41,1501.22 0,2070.66l0 0c-569.45,569.45 -1501.25,569.45 -2070.69,0l-3105.98 -3106.01 -1035.32 -1035.32 -0.13 -0.1c-569.45,-569.32 -1501.15,-569.32 -2070.53,0.1l1035.32 -1035.32z"/>
   <path class="fil4" d="M32295.32 9743.37l-1035.35 1035.35c-8.9,8.9 -17.86,17.63 -26.95,26.28 -9.09,8.61 -18.24,17.09 -27.46,25.42 -9.25,8.35 -18.56,16.55 -27.97,24.62 -9.41,8.07 -18.91,15.98 -28.45,23.76 -9.57,7.81 -19.23,15.43 -28.92,22.96 -9.73,7.49 -19.52,14.86 -29.37,22.1 -9.85,7.24 -19.8,14.32 -29.78,21.27l0 0c-10.01,6.95 -20.06,13.74 -30.2,20.44 -10.14,6.66 -20.35,13.2 -30.61,19.61 -10.27,6.38 -20.57,12.63 -30.96,18.75 -10.4,6.12 -20.86,12.09 -31.38,17.95 -10.49,5.84 -21.08,11.51 -31.7,17.06l0 0.03c-10.62,5.55 -21.3,10.97 -32.02,16.26l0 0c-10.75,5.29 -21.53,10.4 -32.34,15.4l0 0.03c-10.84,5.01 -21.72,9.85 -32.65,14.57l0 0.03c-10.94,4.72 -21.91,9.28 -32.91,13.74l0 0c-11.03,4.46 -22.1,8.74 -33.2,12.92l0 0.03c-11.13,4.18 -22.26,8.16 -33.45,12.09l0 0c-11.19,3.89 -22.42,7.65 -33.68,11.26 -11.29,3.6 -22.55,7.08 -33.9,10.43 -11.32,3.35 -22.71,6.54 -34.09,9.6 -11.42,3.06 -22.8,5.96 -34.25,8.74 -11.45,2.81 -22.93,5.42 -34.44,7.94 -11.51,2.49 -23.02,4.85 -34.6,7.08l0 0c-11.54,2.23 -23.12,4.31 -34.7,6.25 -11.61,1.98 -23.22,3.76 -34.85,5.42 -11.61,1.69 -23.28,3.19 -34.92,4.59l0 0.03c-11.67,1.37 -23.34,2.61 -35.01,3.73 -11.7,1.12 -23.41,2.07 -35.11,2.9 -11.7,0.86 -23.41,1.56 -35.11,2.1 -11.7,0.57 -23.44,0.96 -35.17,1.24 -11.74,0.29 -23.47,0.41 -35.17,0.41 -11.74,0 -23.47,-0.13 -35.21,-0.41 -11.7,-0.29 -23.44,-0.67 -35.14,-1.24 -11.74,-0.54 -23.44,-1.24 -35.14,-2.1 -11.7,-0.83 -23.41,-1.79 -35.08,-2.9 -11.7,-1.12 -23.37,-2.36 -35.01,-3.73l0 -0.03c-11.67,-1.4 -23.31,-2.9 -34.95,-4.59 -11.61,-1.66 -23.25,-3.44 -34.82,-5.42 -11.61,-1.95 -23.18,-4.02 -34.73,-6.25l0 0c-11.54,-2.23 -23.06,-4.59 -34.57,-7.08 -11.51,-2.52 -22.99,-5.13 -34.44,-7.94 -11.48,-2.77 -22.86,-5.68 -34.28,-8.74 -11.38,-3.06 -22.77,-6.25 -34.09,-9.6 -11.32,-3.35 -22.61,-6.82 -33.87,-10.43 -11.29,-3.6 -22.51,-7.37 -33.71,-11.26l0 0c-11.16,-3.92 -22.32,-7.91 -33.42,-12.09l0 -0.03c-11.13,-4.18 -22.16,-8.45 -33.2,-12.92l0 0c-11.03,-4.46 -22,-9.02 -32.94,-13.74l0 -0.03c-10.94,-4.72 -21.78,-9.57 -32.62,-14.57l0 -0.03c-10.84,-5.01 -21.62,-10.11 -32.34,-15.4l0 0c-10.75,-5.29 -21.43,-10.71 -32.05,-16.26l0 -0.03c-10.62,-5.55 -21.17,-11.23 -31.7,-17.06 -10.52,-5.87 -20.95,-11.83 -31.35,-17.95 -10.4,-6.12 -20.73,-12.37 -31,-18.75 -10.27,-6.41 -20.47,-12.95 -30.58,-19.61 -10.14,-6.66 -20.22,-13.49 -30.2,-20.44l0 0c-10.01,-6.95 -19.93,-14.03 -29.82,-21.27 -9.85,-7.24 -19.64,-14.61 -29.34,-22.1 -9.73,-7.53 -19.36,-15.15 -28.92,-22.96 -9.57,-7.78 -19.07,-15.69 -28.45,-23.76 -9.41,-8.07 -18.75,-16.26 -27.97,-24.62 -9.25,-8.32 -18.4,-16.81 -27.49,-25.42 -9.06,-8.64 -18.05,-17.38 -26.95,-26.28l-4141.32 -4141.32c-569.45,-569.45 -569.45,-1501.22 0,-2070.69l0 0c569.45,-569.41 1501.22,-569.41 2070.69,0.03l3105.98 3105.98 1035.32 1035.35 0.13 0.1c569.45,569.32 1501.15,569.29 2070.53,-0.1l-1035.32 1035.32z"/>
  </g>
  <path class="fil5" d="M1209.88 4845.98c107.94,-1068.22 173.16,-2244.36 194.52,-3528.48l-1404.4 33.74 15.72 -364.33c8.99,-195.64 15.75,-409.27 20.25,-640.91 624.07,4.5 1351.56,6.73 2181.41,6.73l814.07 -3.35 791.62 0 428.4 -3.38 -20.22 321.57c-7.88,173.19 -14.64,315.99 -18.02,428.43 -3.35,112.44 -4.5,197.9 -4.5,255.24 -470.02,-22.48 -857.95,-33.74 -1162.65,-33.74l-230.53 0c-33.71,387.93 -58.45,746.62 -76.44,1076.07 -24.75,472.28 -42.73,929.92 -56.22,1374.07 -13.52,444.15 -20.25,803.96 -20.25,1078.33 -359.84,-4.5 -591.45,-6.76 -697.16,-6.76 -93.31,0 -346.32,2.26 -755.61,6.76zm3223.78 0c35.97,-327.22 60.72,-597.06 76.44,-807.34 31.51,-441.92 64.1,-955.78 96.72,-1540.47 20.22,-386.82 35.97,-757.88 44.96,-1113.19 10.11,-356.46 15.75,-702.77 15.75,-1038.98 277.72,4.5 504.87,6.73 680.26,6.73 237.26,0 461.02,-2.23 671.3,-6.73l-69.71 798.35c-11.26,131.54 -29.24,399.16 -52.84,800.58 71.94,-92.19 131.54,-160.79 177.65,-205.75 46.11,-45 96.69,-86.58 152.91,-124.81 56.22,-38.24 112.44,-70.86 170.93,-97.84 58.48,-25.86 124.81,-49.46 201.28,-68.59 75.32,-20.22 158.52,-35.97 249.6,-46.08 91.11,-11.26 185.53,-16.87 282.25,-16.87 186.65,0 366.57,21.37 540.84,62.95 174.31,41.62 323.83,114.71 446.42,219.27 122.55,103.45 205.75,220.39 249.63,348.58 43.85,129.31 66.33,269.85 66.33,423.9 0,59.6 -1.12,138.3 -4.5,236.14 -3.38,97.84 -10.11,221.5 -20.25,369.95l-69.71 1110.92c-8.99,138.3 -13.49,254.13 -14.61,345.2 -1.15,91.08 -2.26,205.78 -2.26,344.08 -228.26,-4.5 -447.53,-6.76 -656.66,-6.76 -235.02,0 -474.51,2.26 -716.26,6.76 37.12,-292.36 70.83,-628.57 98.95,-1010.86 29.24,-381.2 43.85,-664.54 43.85,-851.22 0,-206.9 -43.85,-351.93 -130.43,-435.16 -86.58,-83.2 -201.28,-124.78 -344.08,-124.78 -127.05,0 -239.49,25.86 -338.44,78.7 -87.73,46.08 -164.17,118.05 -230.53,214.77 -56.22,80.93 -103.45,199.02 -141.68,351.93 -43.85,186.65 -77.59,463.29 -101.18,827.59 -14.64,202.4 -28.13,518.36 -41.62,949.02 -222.62,-4.5 -429.52,-6.76 -622.92,-6.76 -195.67,0 -431.78,2.26 -708.39,6.76zm4801.34 -3784.83c13.49,-260.89 20.25,-466.67 20.25,-618.46 0,-43.85 -1.15,-103.45 -3.38,-177.65 265.35,4.5 486.88,6.76 666.8,6.76 247.36,0 464.37,-2.26 651.02,-6.76 -6.73,67.48 -11.23,124.81 -13.49,170.93l-19.1 408.15c-4.5,60.72 -6.76,133.81 -6.76,217.04 -217.01,-4.5 -425.02,-6.76 -625.19,-6.76 -205.75,0 -429.52,2.26 -670.15,6.76zm-209.13 3784.83c30.36,-268.73 52.84,-489.12 67.45,-662.31 15.75,-174.27 30.36,-395.78 43.85,-666.77 14.64,-269.88 27.01,-568.97 37.12,-896.18 11.26,-328.33 20.25,-708.39 25.86,-1141.28 285.6,4.5 513.86,6.73 684.79,6.73 156.29,0 380.06,-2.23 672.42,-6.73 -36,414.91 -61.87,780.33 -76.47,1095.17 -15.75,313.73 -25.86,646.55 -30.36,998.51 -7.88,624.07 -12.37,1049.09 -12.37,1272.86 -262,-4.5 -486.88,-6.76 -676.91,-6.76 -186.65,0 -431.78,2.26 -735.37,6.76zm2435.51 -2408.53c41.62,-215.89 67.48,-364.33 78.7,-446.42 11.26,-80.97 29.24,-209.13 52.87,-383.44 631.92,-139.42 1175.02,-209.13 1628.17,-209.13 258.62,0 495.88,29.24 710.65,87.7 214.77,57.34 382.32,151.79 502.61,281.1 120.32,129.31 181.04,314.84 181.04,556.59 0,122.58 -16.87,399.19 -49.46,829.85 -32.62,429.52 -57.34,993.99 -74.21,1692.26 -215.89,-4.5 -430.66,-6.76 -643.17,-6.76 -206.9,0 -427.28,2.26 -660.04,6.76 30.36,-241.75 62.95,-741.01 100.07,-1497.74 -83.23,40.47 -148.44,69.71 -195.67,86.58 -47.23,17.99 -129.31,44.96 -247.36,80.97 -119.2,35.97 -211.39,65.21 -277.72,89.93 -66.36,24.75 -124.81,56.25 -174.31,94.46 -49.46,37.12 -84.32,76.47 -104.56,116.94 -21.37,39.38 -31.47,84.35 -31.47,133.84 0,75.32 30.36,140.54 89.96,194.52 59.57,52.84 154.02,79.82 284.48,79.82 46.08,0 95.57,-3.38 149.53,-11.23 52.84,-7.88 125.93,-25.86 218.15,-56.25 -64.1,166.43 -140.57,409.3 -229.38,728.64 -188.91,31.51 -367.71,47.23 -536.38,47.23 -272.11,0 -499.23,-38.24 -680.26,-113.56 -181.04,-76.47 -320.49,-199.02 -418.29,-367.68 -97.84,-169.81 -146.18,-338.47 -146.18,-508.25 0,-103.45 17.99,-204.63 53.96,-303.59 36,-98.95 92.22,-195.67 169.81,-290.13 76.44,-94.46 166.4,-175.39 268.73,-241.75 103.45,-67.45 243.98,-130.43 421.67,-190.03 178.77,-59.6 404.77,-114.67 679.14,-167.55 113.56,-22.48 218.15,-46.08 313.73,-70.83 94.46,-25.86 163.05,-47.23 203.52,-66.33 40.47,-19.13 73.09,-40.5 97.84,-65.25 25.86,-25.86 43.85,-51.72 53.96,-78.7 11.26,-28.09 16.87,-56.22 16.87,-86.58 0,-84.32 -34.85,-149.56 -104.56,-194.52 -69.71,-46.11 -173.16,-68.59 -308.11,-68.59 -376.68,0 -841.08,105.71 -1394.29,317.11zm4037.84 2813.33c283.37,97.84 533,166.4 747.77,204.63 215.89,39.35 403.65,58.48 564.44,58.48 115.82,0 221.53,-12.37 315.99,-38.24 94.46,-24.75 170.89,-56.22 227.11,-93.34 57.37,-38.24 106.83,-85.43 147.3,-141.68 40.5,-57.34 71.97,-121.43 93.34,-192.26 22.48,-69.71 38.24,-151.79 46.11,-244.02 8.99,-92.19 16.87,-219.24 23.6,-382.29 -85.46,76.44 -159.67,138.3 -222.62,184.38 -62.98,46.11 -140.57,89.96 -232.76,132.69 -92.22,43.85 -192.29,76.47 -301.35,98.95 -109.06,23.63 -223.77,34.85 -345.2,34.85 -278.87,0 -530.73,-65.21 -754.5,-194.52 -224.88,-129.31 -392.43,-310.35 -501.49,-541.96 -110.21,-232.76 -165.31,-484.65 -165.31,-754.5 0,-317.11 59.6,-604.97 177.69,-861.33 119.17,-256.36 288.98,-474.51 509.37,-652.17 220.39,-177.65 463.25,-300.24 726.37,-367.68 263.12,-68.59 562.21,-102.33 896.18,-102.33 191.14,0 408.15,11.23 651.05,33.74 242.87,23.6 575.7,71.94 999.6,148.41l-76.44 1087.33 -67.48 1194.16c-3.38,85.46 -5.61,155.17 -5.61,210.28l-25.86 1071.57c-4.5,136.07 -21.37,265.38 -49.49,389.05 -24.71,111.33 -65.21,215.89 -122.55,312.61 -56.22,96.69 -127.08,181.04 -210.28,254.13 -93.34,78.7 -196.76,140.54 -310.35,187.76 -116.94,47.23 -254.13,87.73 -412.65,118.09 -172.04,30.36 -351.96,46.08 -538.61,46.08 -105.71,0 -235.02,-4.5 -389.08,-14.61 -154.02,-10.14 -312.58,-24.75 -473.36,-43.85 -161.93,-20.25 -302.47,-40.5 -419.41,-62.98 -118.09,-21.37 -266.5,-52.84 -447.53,-94.46l-22.48 -437.39c-2.26,-84.35 -12.37,-266.5 -31.51,-547.6zm2264.61 -2841.46c-136.04,-25.86 -258.62,-39.35 -366.57,-39.35 -197.9,0 -368.8,38.24 -512.75,113.56 -143.92,75.35 -256.36,187.8 -335.06,337.36 -79.85,150.64 -119.2,305.82 -119.2,467.75 0,118.05 21.37,228.26 62.98,328.33 41.58,101.22 111.29,179.92 208.01,238.37 96.69,57.37 199.02,86.58 306.97,86.58 158.55,0 299.09,-57.34 422.79,-170.89 122.55,-113.59 208.01,-268.73 254.13,-465.52 46.11,-196.79 71.97,-495.88 78.7,-896.18zm3879.32 -1010.86c273.23,0 535.23,41.58 787.09,124.81 251.86,84.32 464.4,203.52 637.56,360.92 174.27,157.44 302.47,340.7 384.55,550.98 82.08,209.16 123.7,435.16 123.7,676.91 0,235.02 -37.12,457.64 -110.21,670.15 -74.21,211.39 -199.02,410.45 -374.44,595.98 -176.54,185.53 -400.27,324.95 -671.27,417.14 -270.99,92.22 -558.86,138.3 -862.44,138.3 -278.87,0 -547.6,-40.47 -805.11,-121.43 -256.36,-82.08 -472.25,-200.14 -644.29,-356.43 -173.16,-156.32 -302.47,-342.97 -389.05,-559.97 -86.58,-217.04 -130.46,-446.42 -130.46,-684.79 0,-239.52 42.73,-468.9 127.08,-685.91 84.32,-217.01 218.12,-412.68 402.54,-585.84 183.3,-174.27 410.41,-306.97 680.29,-400.31 270.99,-93.31 552.1,-140.54 844.46,-140.54zm-22.51 971.5c-140.54,0 -266.47,35.97 -376.68,107.94 -109.06,73.09 -192.29,178.77 -248.51,317.11 -56.22,139.42 -84.32,291.21 -84.32,455.38 0,240.64 60.72,425.05 181.04,553.21 121.43,128.19 273.23,192.29 455.38,192.29 138.34,0 263.12,-37.12 373.33,-110.21 109.06,-73.09 192.29,-182.15 248.51,-324.95 56.22,-143.92 84.32,-296.86 84.32,-462.14 0,-134.92 -22.48,-257.51 -66.33,-367.68 -43.85,-109.09 -115.82,-196.79 -215.89,-262 -100.07,-66.33 -217.04,-98.95 -350.85,-98.95zm-15555.4 7565.68c-25.86,128.16 -57.37,308.08 -94.46,537.46 -36,230.53 -60.72,409.3 -74.24,535.23 -470.02,71.97 -888.31,107.94 -1257.1,107.94 -355.31,0 -687.02,-44.96 -992.87,-133.81 -305.85,-88.81 -586.95,-234.99 -842.19,-437.39 -256.39,-203.52 -438.54,-443.04 -548.75,-717.38 -109.06,-274.37 -164.17,-581.34 -164.17,-922.04 0,-398.04 74.24,-755.61 222.65,-1072.72 147.3,-317.07 360.95,-582.46 638.68,-793.85 277.72,-212.51 582.46,-363.19 913.05,-454.26 331.71,-91.08 674.65,-137.19 1027.73,-137.19 324.95,0 726.37,42.73 1205.38,128.19l6.76 275.49c3.38,120.32 10.11,251.86 17.99,396.92l22.48 373.3c-256.36,-60.72 -464.37,-101.18 -624.04,-122.55 -159.67,-21.37 -307,-32.62 -443.04,-32.62 -295.74,0 -563.35,59.6 -800.61,177.65 -236.11,119.2 -422.79,291.24 -558.83,517.24 -136.07,226.03 -204.66,476.78 -204.66,751.12 0,249.63 57.37,464.4 170.93,644.32 114.71,178.77 268.73,317.07 462.14,414.91 194.52,97.84 434.04,146.18 719.64,146.18 155.17,0 324.95,-12.37 508.25,-37.12 183.27,-24.71 412.65,-73.09 689.29,-145.03zm2555.82 -2354.57c273.23,0 535.23,41.58 787.09,124.81 251.86,84.32 464.4,203.52 637.56,360.92 174.27,157.44 302.47,340.7 384.55,550.98 82.08,209.16 123.7,435.16 123.7,676.91 0,235.02 -37.12,457.64 -110.21,670.15 -74.21,211.39 -199.02,410.45 -374.44,595.98 -176.54,185.53 -400.27,324.95 -671.27,417.14 -270.99,92.22 -558.86,138.3 -862.44,138.3 -278.87,0 -547.6,-40.47 -805.11,-121.43 -256.36,-82.08 -472.25,-200.14 -644.29,-356.43 -173.16,-156.32 -302.47,-342.97 -389.05,-559.97 -86.58,-217.04 -130.46,-446.42 -130.46,-684.79 0,-239.52 42.73,-468.9 127.08,-685.91 84.32,-217.01 218.12,-412.68 402.54,-585.84 183.3,-174.27 410.41,-306.97 680.29,-400.31 270.99,-93.31 552.1,-140.54 844.46,-140.54zm-22.51 971.5c-140.54,0 -266.47,35.97 -376.68,107.94 -109.06,73.09 -192.29,178.77 -248.51,317.11 -56.22,139.42 -84.32,291.21 -84.32,455.38 0,240.64 60.72,425.05 181.04,553.21 121.43,128.19 273.23,192.29 455.38,192.29 138.34,0 263.12,-37.12 373.33,-110.21 109.06,-73.09 192.29,-182.15 248.51,-324.95 56.22,-143.92 84.32,-296.86 84.32,-462.14 0,-134.92 -22.48,-257.51 -66.33,-367.68 -43.85,-109.09 -115.82,-196.79 -215.89,-262 -100.07,-66.33 -217.04,-98.95 -350.85,-98.95zm-959.13 -1356.06c120.32,-230.53 239.52,-477.89 357.57,-742.13 215.89,4.5 453.15,6.73 710.65,6.73 181.04,0 398.04,-2.23 652.17,-6.73 52.84,138.3 158.55,385.67 317.07,742.13 -147.3,-4.5 -278.84,-6.76 -393.54,-6.76 -80.97,0 -206.9,2.26 -376.68,6.76l-218.15 -323.83 -240.64 323.83c-128.16,-4.5 -256.36,-6.76 -385.67,-6.76 -149.56,0 -291.21,2.26 -422.79,6.76zm3393.55 3832.06l104.56 -1464 33.74 -841.08c2.23,-151.82 3.38,-305.85 3.38,-464.4 0,-160.79 -2.26,-359.81 -6.76,-597.06 265.35,4.5 476.74,6.73 631.92,6.73 183.3,0 392.43,-2.23 629.68,-6.73l-14.61 376.68c86.58,-96.72 157.44,-168.66 212.51,-215.89 55.1,-47.23 116.94,-89.96 187.8,-128.19 70.83,-38.24 145.03,-67.48 221.5,-85.46 77.59,-19.1 157.44,-28.09 241.75,-28.09 78.7,0 167.55,11.23 264.23,33.74 2.26,239.49 7.88,436.28 16.87,592.57l23.63 507.13c-121.43,-36 -235.02,-53.99 -340.7,-53.99 -132.69,0 -246.25,19.1 -341.82,57.34 -95.6,38.24 -181.04,96.72 -255.27,175.42 -73.06,77.59 -132.66,174.27 -176.51,291.24 -43.88,115.79 -75.35,300.21 -92.22,553.21 -17.99,251.86 -26.98,540.84 -26.98,865.79 0,114.71 4.5,256.39 13.49,425.05 -213.63,-4.5 -428.4,-6.76 -643.17,-6.76 -213.66,0 -443.04,2.26 -687.02,6.76zm5361.31 -964.78c-39.38,184.42 -74.24,365.45 -102.33,541.99l-73.09 402.54c-218.15,46.11 -387.93,76.47 -509.37,88.84 -122.58,12.37 -240.64,19.1 -355.34,19.1 -186.65,0 -353.05,-15.72 -498.11,-48.34 -145.06,-31.47 -266.5,-89.96 -363.19,-174.27 -96.72,-84.35 -163.05,-182.18 -197.9,-291.24 -34.85,-110.18 -52.84,-227.11 -52.84,-349.7 0,-22.48 1.12,-60.72 3.35,-116.94 2.26,-56.22 10.14,-181.04 22.51,-374.44l71.94 -1141.28 -516.09 0c11.23,-151.82 21.37,-350.85 29.21,-598.21l10.14 -305.85 547.6 0c13.49,-101.18 30.36,-321.57 49.46,-661.16l564.47 -116.94c103.45,-20.25 323.83,-70.86 661.16,-152.94 -15.72,287.86 -26.98,598.21 -32.59,931.04l747.74 0c-17.99,455.41 -25.86,756.76 -25.86,904.06l-755.61 0 -39.35 825.32c-4.5,122.55 -6.76,201.28 -6.76,237.26 0,105.68 11.26,193.41 34.85,264.23 22.51,69.71 64.1,120.32 122.58,151.79 58.45,30.36 122.55,46.11 193.41,46.11 52.84,0 107.94,-3.38 165.28,-11.23 57.34,-7.88 158.55,-30.39 304.73,-69.74zm3682.5 -26.98c-28.09,131.57 -82.08,448.65 -161.9,951.29 -255.24,51.72 -470.02,85.43 -644.32,102.3 -174.27,16.87 -349.7,25.86 -528.47,25.86 -262,0 -503.75,-17.99 -723.02,-53.96 -220.39,-36 -410.41,-101.22 -570.08,-193.41 -159.67,-91.08 -293.48,-205.78 -401.42,-342.97 -107.94,-137.16 -190.03,-300.21 -246.25,-489.12 -56.22,-188.91 -84.35,-383.44 -84.35,-582.46 0,-281.1 56.22,-556.59 168.66,-825.32 111.33,-268.76 256.39,-479.01 432.93,-629.68 177.65,-151.79 381.17,-259.74 611.7,-322.72 230.5,-64.1 467.75,-95.57 709.5,-95.57 249.63,0 489.12,29.24 716.26,87.7 228.26,57.34 420.55,159.67 579.08,303.62 158.55,145.03 270.99,308.08 338.47,490.23 66.33,182.15 100.07,378.94 100.07,589.22 0,125.93 -13.49,264.23 -40.47,418.29l-2317.48 3.35c-2.23,34.89 -3.35,66.36 -3.35,95.6 0,236.11 85.43,410.41 255.24,522.86 169.78,111.33 376.68,167.55 621.81,167.55 145.06,0 311.46,-16.87 498.11,-50.61 185.53,-33.74 416.06,-91.08 689.29,-172.04zm-2035.23 -1065.96l1090.71 0c2.26,-37.12 3.38,-68.59 3.38,-95.57 0,-113.59 -20.25,-211.39 -60.72,-292.36 -41.62,-80.97 -100.07,-139.42 -175.42,-176.54 -76.44,-37.09 -161.9,-56.22 -256.36,-56.22 -66.36,0 -129.31,10.11 -191.14,31.47 -61.87,20.25 -118.09,51.72 -167.55,92.22 -49.49,40.47 -91.08,86.58 -123.7,139.42 -32.62,51.72 -57.34,103.45 -73.09,151.79 -14.61,49.49 -30.36,118.09 -46.11,205.78zm2735.78 1997c-8.99,-96.69 -16.87,-199.02 -25.86,-305.85 -8.99,-106.83 -22.48,-254.13 -42.73,-440.77l-25.86 -238.37c212.51,84.32 394.69,147.3 547.6,187.76 152.91,41.62 294.59,61.83 422.79,61.83 107.94,0 194.52,-10.11 260.89,-29.21 67.45,-20.25 115.79,-48.38 146.15,-85.46 30.36,-37.12 46.11,-75.35 46.11,-114.71 0,-35.97 -11.26,-69.71 -34.85,-104.56 -22.48,-33.74 -74.21,-79.82 -155.17,-139.42 -178.77,-131.57 -336.21,-251.89 -472.25,-359.84 -136.07,-106.8 -238.4,-202.4 -307,-286.72 -68.56,-83.2 -121.43,-173.16 -157.41,-269.88 -35.97,-96.69 -53.99,-196.76 -53.99,-299.09 0,-183.3 51.72,-353.08 156.32,-511.63 103.45,-157.41 257.47,-272.11 459.87,-344.05 202.4,-70.86 449.8,-106.83 741.01,-106.83 304.73,0 692.67,40.47 1166.03,121.43l53.99 917.55c-264.23,-103.45 -518.36,-155.17 -763.49,-155.17 -172.04,0 -297.97,17.99 -375.56,52.84 -77.59,35.97 -115.82,89.96 -115.82,164.17 0,23.6 4.5,47.23 13.49,68.59 7.88,22.48 24.75,44.96 47.23,69.71 22.48,23.63 51.72,48.34 85.46,74.21 33.74,24.75 115.82,83.23 247.36,175.42 131.57,92.19 233.88,168.66 308.11,228.26 122.55,96.69 215.89,185.53 281.1,267.61 64.1,83.2 113.56,170.89 147.3,264.23 33.74,93.34 50.61,191.14 50.61,294.59 0,156.32 -38.24,299.12 -113.59,429.55 -75.32,131.54 -190.03,240.64 -342.94,328.33 -151.79,87.7 -317.11,148.44 -495.88,183.3 -177.65,33.71 -360.95,50.58 -549.87,50.58 -127.05,0 -286.72,-11.23 -479.01,-32.59 -192.26,-22.48 -414.91,-60.72 -670.15,-115.82z"/>
  <path class="fil6" d="M1209.88 4845.98c107.94,-1068.22 173.16,-2244.36 194.52,-3528.48l-1404.4 33.74 15.72 -364.33c8.99,-195.64 15.75,-409.27 20.25,-640.91 624.07,4.5 1351.56,6.73 2181.41,6.73l814.07 -3.35 791.62 0 428.4 -3.38 -20.22 321.57c-7.88,173.19 -14.64,315.99 -18.02,428.43 -3.35,112.44 -4.5,197.9 -4.5,255.24 -470.02,-22.48 -857.95,-33.74 -1162.65,-33.74l-230.53 0c-33.71,387.93 -58.45,746.62 -76.44,1076.07 -24.75,472.28 -42.73,929.92 -56.22,1374.07 -13.52,444.15 -20.25,803.96 -20.25,1078.33 -359.84,-4.5 -591.45,-6.76 -697.16,-6.76 -93.31,0 -346.32,2.26 -755.61,6.76zm3223.78 0c35.97,-327.22 60.72,-597.06 76.44,-807.34 31.51,-441.92 64.1,-955.78 96.72,-1540.47 20.22,-386.82 35.97,-757.88 44.96,-1113.19 10.11,-356.46 15.75,-702.77 15.75,-1038.98 277.72,4.5 504.87,6.73 680.26,6.73 237.26,0 461.02,-2.23 671.3,-6.73l-69.71 798.35c-11.26,131.54 -29.24,399.16 -52.84,800.58 71.94,-92.19 131.54,-160.79 177.65,-205.75 46.11,-45 96.69,-86.58 152.91,-124.81 56.22,-38.24 112.44,-70.86 170.93,-97.84 58.48,-25.86 124.81,-49.46 201.28,-68.59 75.32,-20.22 158.52,-35.97 249.6,-46.08 91.11,-11.26 185.53,-16.87 282.25,-16.87 186.65,0 366.57,21.37 540.84,62.95 174.31,41.62 323.83,114.71 446.42,219.27 122.55,103.45 205.75,220.39 249.63,348.58 43.85,129.31 66.33,269.85 66.33,423.9 0,59.6 -1.12,138.3 -4.5,236.14 -3.38,97.84 -10.11,221.5 -20.25,369.95l-69.71 1110.92c-8.99,138.3 -13.49,254.13 -14.61,345.2 -1.15,91.08 -2.26,205.78 -2.26,344.08 -228.26,-4.5 -447.53,-6.76 -656.66,-6.76 -235.02,0 -474.51,2.26 -716.26,6.76 37.12,-292.36 70.83,-628.57 98.95,-1010.86 29.24,-381.2 43.85,-664.54 43.85,-851.22 0,-206.9 -43.85,-351.93 -130.43,-435.16 -86.58,-83.2 -201.28,-124.78 -344.08,-124.78 -127.05,0 -239.49,25.86 -338.44,78.7 -87.73,46.08 -164.17,118.05 -230.53,214.77 -56.22,80.93 -103.45,199.02 -141.68,351.93 -43.85,186.65 -77.59,463.29 -101.18,827.59 -14.64,202.4 -28.13,518.36 -41.62,949.02 -222.62,-4.5 -429.52,-6.76 -622.92,-6.76 -195.67,0 -431.78,2.26 -708.39,6.76zm4801.34 -3784.83c13.49,-260.89 20.25,-466.67 20.25,-618.46 0,-43.85 -1.15,-103.45 -3.38,-177.65 265.35,4.5 486.88,6.76 666.8,6.76 247.36,0 464.37,-2.26 651.02,-6.76 -6.73,67.48 -11.23,124.81 -13.49,170.93l-19.1 408.15c-4.5,60.72 -6.76,133.81 -6.76,217.04 -217.01,-4.5 -425.02,-6.76 -625.19,-6.76 -205.75,0 -429.52,2.26 -670.15,6.76zm-209.13 3784.83c30.36,-268.73 52.84,-489.12 67.45,-662.31 15.75,-174.27 30.36,-395.78 43.85,-666.77 14.64,-269.88 27.01,-568.97 37.12,-896.18 11.26,-328.33 20.25,-708.39 25.86,-1141.28 285.6,4.5 513.86,6.73 684.79,6.73 156.29,0 380.06,-2.23 672.42,-6.73 -36,414.91 -61.87,780.33 -76.47,1095.17 -15.75,313.73 -25.86,646.55 -30.36,998.51 -7.88,624.07 -12.37,1049.09 -12.37,1272.86 -262,-4.5 -486.88,-6.76 -676.91,-6.76 -186.65,0 -431.78,2.26 -735.37,6.76zm2435.51 -2408.53c41.62,-215.89 67.48,-364.33 78.7,-446.42 11.26,-80.97 29.24,-209.13 52.87,-383.44 631.92,-139.42 1175.02,-209.13 1628.17,-209.13 258.62,0 495.88,29.24 710.65,87.7 214.77,57.34 382.32,151.79 502.61,281.1 120.32,129.31 181.04,314.84 181.04,556.59 0,122.58 -16.87,399.19 -49.46,829.85 -32.62,429.52 -57.34,993.99 -74.21,1692.26 -215.89,-4.5 -430.66,-6.76 -643.17,-6.76 -206.9,0 -427.28,2.26 -660.04,6.76 30.36,-241.75 62.95,-741.01 100.07,-1497.74 -83.23,40.47 -148.44,69.71 -195.67,86.58 -47.23,17.99 -129.31,44.96 -247.36,80.97 -119.2,35.97 -211.39,65.21 -277.72,89.93 -66.36,24.75 -124.81,56.25 -174.31,94.46 -49.46,37.12 -84.32,76.47 -104.56,116.94 -21.37,39.38 -31.47,84.35 -31.47,133.84 0,75.32 30.36,140.54 89.96,194.52 59.57,52.84 154.02,79.82 284.48,79.82 46.08,0 95.57,-3.38 149.53,-11.23 52.84,-7.88 125.93,-25.86 218.15,-56.25 -64.1,166.43 -140.57,409.3 -229.38,728.64 -188.91,31.51 -367.71,47.23 -536.38,47.23 -272.11,0 -499.23,-38.24 -680.26,-113.56 -181.04,-76.47 -320.49,-199.02 -418.29,-367.68 -97.84,-169.81 -146.18,-338.47 -146.18,-508.25 0,-103.45 17.99,-204.63 53.96,-303.59 36,-98.95 92.22,-195.67 169.81,-290.13 76.44,-94.46 166.4,-175.39 268.73,-241.75 103.45,-67.45 243.98,-130.43 421.67,-190.03 178.77,-59.6 404.77,-114.67 679.14,-167.55 113.56,-22.48 218.15,-46.08 313.73,-70.83 94.46,-25.86 163.05,-47.23 203.52,-66.33 40.47,-19.13 73.09,-40.5 97.84,-65.25 25.86,-25.86 43.85,-51.72 53.96,-78.7 11.26,-28.09 16.87,-56.22 16.87,-86.58 0,-84.32 -34.85,-149.56 -104.56,-194.52 -69.71,-46.11 -173.16,-68.59 -308.11,-68.59 -376.68,0 -841.08,105.71 -1394.29,317.11zm4037.84 2813.33c283.37,97.84 533,166.4 747.77,204.63 215.89,39.35 403.65,58.48 564.44,58.48 115.82,0 221.53,-12.37 315.99,-38.24 94.46,-24.75 170.89,-56.22 227.11,-93.34 57.37,-38.24 106.83,-85.43 147.3,-141.68 40.5,-57.34 71.97,-121.43 93.34,-192.26 22.48,-69.71 38.24,-151.79 46.11,-244.02 8.99,-92.19 16.87,-219.24 23.6,-382.29 -85.46,76.44 -159.67,138.3 -222.62,184.38 -62.98,46.11 -140.57,89.96 -232.76,132.69 -92.22,43.85 -192.29,76.47 -301.35,98.95 -109.06,23.63 -223.77,34.85 -345.2,34.85 -278.87,0 -530.73,-65.21 -754.5,-194.52 -224.88,-129.31 -392.43,-310.35 -501.49,-541.96 -110.21,-232.76 -165.31,-484.65 -165.31,-754.5 0,-317.11 59.6,-604.97 177.69,-861.33 119.17,-256.36 288.98,-474.51 509.37,-652.17 220.39,-177.65 463.25,-300.24 726.37,-367.68 263.12,-68.59 562.21,-102.33 896.18,-102.33 191.14,0 408.15,11.23 651.05,33.74 242.87,23.6 575.7,71.94 999.6,148.41l-76.44 1087.33 -67.48 1194.16c-3.38,85.46 -5.61,155.17 -5.61,210.28l-25.86 1071.57c-4.5,136.07 -21.37,265.38 -49.49,389.05 -24.71,111.33 -65.21,215.89 -122.55,312.61 -56.22,96.69 -127.08,181.04 -210.28,254.13 -93.34,78.7 -196.76,140.54 -310.35,187.76 -116.94,47.23 -254.13,87.73 -412.65,118.09 -172.04,30.36 -351.96,46.08 -538.61,46.08 -105.71,0 -235.02,-4.5 -389.08,-14.61 -154.02,-10.14 -312.58,-24.75 -473.36,-43.85 -161.93,-20.25 -302.47,-40.5 -419.41,-62.98 -118.09,-21.37 -266.5,-52.84 -447.53,-94.46l-22.48 -437.39c-2.26,-84.35 -12.37,-266.5 -31.51,-547.6zm2264.61 -2841.46c-136.04,-25.86 -258.62,-39.35 -366.57,-39.35 -197.9,0 -368.8,38.24 -512.75,113.56 -143.92,75.35 -256.36,187.8 -335.06,337.36 -79.85,150.64 -119.2,305.82 -119.2,467.75 0,118.05 21.37,228.26 62.98,328.33 41.58,101.22 111.29,179.92 208.01,238.37 96.69,57.37 199.02,86.58 306.97,86.58 158.55,0 299.09,-57.34 422.79,-170.89 122.55,-113.59 208.01,-268.73 254.13,-465.52 46.11,-196.79 71.97,-495.88 78.7,-896.18zm3879.32 -1010.86c273.23,0 535.23,41.58 787.09,124.81 251.86,84.32 464.4,203.52 637.56,360.92 174.27,157.44 302.47,340.7 384.55,550.98 82.08,209.16 123.7,435.16 123.7,676.91 0,235.02 -37.12,457.64 -110.21,670.15 -74.21,211.39 -199.02,410.45 -374.44,595.98 -176.54,185.53 -400.27,324.95 -671.27,417.14 -270.99,92.22 -558.86,138.3 -862.44,138.3 -278.87,0 -547.6,-40.47 -805.11,-121.43 -256.36,-82.08 -472.25,-200.14 -644.29,-356.43 -173.16,-156.32 -302.47,-342.97 -389.05,-559.97 -86.58,-217.04 -130.46,-446.42 -130.46,-684.79 0,-239.52 42.73,-468.9 127.08,-685.91 84.32,-217.01 218.12,-412.68 402.54,-585.84 183.3,-174.27 410.41,-306.97 680.29,-400.31 270.99,-93.31 552.1,-140.54 844.46,-140.54zm-22.51 971.5c-140.54,0 -266.47,35.97 -376.68,107.94 -109.06,73.09 -192.29,178.77 -248.51,317.11 -56.22,139.42 -84.32,291.21 -84.32,455.38 0,240.64 60.72,425.05 181.04,553.21 121.43,128.19 273.23,192.29 455.38,192.29 138.34,0 263.12,-37.12 373.33,-110.21 109.06,-73.09 192.29,-182.15 248.51,-324.95 56.22,-143.92 84.32,-296.86 84.32,-462.14 0,-134.92 -22.48,-257.51 -66.33,-367.68 -43.85,-109.09 -115.82,-196.79 -215.89,-262 -100.07,-66.33 -217.04,-98.95 -350.85,-98.95z"/>
  <path class="fil7" d="M6065.23 9935.69c-25.86,128.16 -57.37,308.08 -94.46,537.46 -36,230.53 -60.72,409.3 -74.24,535.23 -470.02,71.97 -888.31,107.94 -1257.1,107.94 -355.31,0 -687.02,-44.96 -992.87,-133.81 -305.85,-88.81 -586.95,-234.99 -842.19,-437.39 -256.39,-203.52 -438.54,-443.04 -548.75,-717.38 -109.06,-274.37 -164.17,-581.34 -164.17,-922.04 0,-398.04 74.24,-755.61 222.65,-1072.72 147.3,-317.07 360.95,-582.46 638.68,-793.85 277.72,-212.51 582.46,-363.19 913.05,-454.26 331.71,-91.08 674.65,-137.19 1027.73,-137.19 324.95,0 726.37,42.73 1205.38,128.19l6.76 275.49c3.38,120.32 10.11,251.86 17.99,396.92l22.48 373.3c-256.36,-60.72 -464.37,-101.18 -624.04,-122.55 -159.67,-21.37 -307,-32.62 -443.04,-32.62 -295.74,0 -563.35,59.6 -800.61,177.65 -236.11,119.2 -422.79,291.24 -558.83,517.24 -136.07,226.03 -204.66,476.78 -204.66,751.12 0,249.63 57.37,464.4 170.93,644.32 114.71,178.77 268.73,317.07 462.14,414.91 194.52,97.84 434.04,146.18 719.64,146.18 155.17,0 324.95,-12.37 508.25,-37.12 183.27,-24.71 412.65,-73.09 689.29,-145.03zm2555.82 -2354.57c273.23,0 535.23,41.58 787.09,124.81 251.86,84.32 464.4,203.52 637.56,360.92 174.27,157.44 302.47,340.7 384.55,550.98 82.08,209.16 123.7,435.16 123.7,676.91 0,235.02 -37.12,457.64 -110.21,670.15 -74.21,211.39 -199.02,410.45 -374.44,595.98 -176.54,185.53 -400.27,324.95 -671.27,417.14 -270.99,92.22 -558.86,138.3 -862.44,138.3 -278.87,0 -547.6,-40.47 -805.11,-121.43 -256.36,-82.08 -472.25,-200.14 -644.29,-356.43 -173.16,-156.32 -302.47,-342.97 -389.05,-559.97 -86.58,-217.04 -130.46,-446.42 -130.46,-684.79 0,-239.52 42.73,-468.9 127.08,-685.91 84.32,-217.01 218.12,-412.68 402.54,-585.84 183.3,-174.27 410.41,-306.97 680.29,-400.31 270.99,-93.31 552.1,-140.54 844.46,-140.54zm-22.51 971.5c-140.54,0 -266.47,35.97 -376.68,107.94 -109.06,73.09 -192.29,178.77 -248.51,317.11 -56.22,139.42 -84.32,291.21 -84.32,455.38 0,240.64 60.72,425.05 181.04,553.21 121.43,128.19 273.23,192.29 455.38,192.29 138.34,0 263.12,-37.12 373.33,-110.21 109.06,-73.09 192.29,-182.15 248.51,-324.95 56.22,-143.92 84.32,-296.86 84.32,-462.14 0,-134.92 -22.48,-257.51 -66.33,-367.68 -43.85,-109.09 -115.82,-196.79 -215.89,-262 -100.07,-66.33 -217.04,-98.95 -350.85,-98.95zm-959.13 -1356.06c120.32,-230.53 239.52,-477.89 357.57,-742.13 215.89,4.5 453.15,6.73 710.65,6.73 181.04,0 398.04,-2.23 652.17,-6.73 52.84,138.3 158.55,385.67 317.07,742.13 -147.3,-4.5 -278.84,-6.76 -393.54,-6.76 -80.97,0 -206.9,2.26 -376.68,6.76l-218.15 -323.83 -240.64 323.83c-128.16,-4.5 -256.36,-6.76 -385.67,-6.76 -149.56,0 -291.21,2.26 -422.79,6.76zm3393.55 3832.06l104.56 -1464 33.74 -841.08c2.23,-151.82 3.38,-305.85 3.38,-464.4 0,-160.79 -2.26,-359.81 -6.76,-597.06 265.35,4.5 476.74,6.73 631.92,6.73 183.3,0 392.43,-2.23 629.68,-6.73l-14.61 376.68c86.58,-96.72 157.44,-168.66 212.51,-215.89 55.1,-47.23 116.94,-89.96 187.8,-128.19 70.83,-38.24 145.03,-67.48 221.5,-85.46 77.59,-19.1 157.44,-28.09 241.75,-28.09 78.7,0 167.55,11.23 264.23,33.74 2.26,239.49 7.88,436.28 16.87,592.57l23.63 507.13c-121.43,-36 -235.02,-53.99 -340.7,-53.99 -132.69,0 -246.25,19.1 -341.82,57.34 -95.6,38.24 -181.04,96.72 -255.27,175.42 -73.06,77.59 -132.66,174.27 -176.51,291.24 -43.88,115.79 -75.35,300.21 -92.22,553.21 -17.99,251.86 -26.98,540.84 -26.98,865.79 0,114.71 4.5,256.39 13.49,425.05 -213.63,-4.5 -428.4,-6.76 -643.17,-6.76 -213.66,0 -443.04,2.26 -687.02,6.76zm5361.31 -964.78c-39.38,184.42 -74.24,365.45 -102.33,541.99l-73.09 402.54c-218.15,46.11 -387.93,76.47 -509.37,88.84 -122.58,12.37 -240.64,19.1 -355.34,19.1 -186.65,0 -353.05,-15.72 -498.11,-48.34 -145.06,-31.47 -266.5,-89.96 -363.19,-174.27 -96.72,-84.35 -163.05,-182.18 -197.9,-291.24 -34.85,-110.18 -52.84,-227.11 -52.84,-349.7 0,-22.48 1.12,-60.72 3.35,-116.94 2.26,-56.22 10.14,-181.04 22.51,-374.44l71.94 -1141.28 -516.09 0c11.23,-151.82 21.37,-350.85 29.21,-598.21l10.14 -305.85 547.6 0c13.49,-101.18 30.36,-321.57 49.46,-661.16l564.47 -116.94c103.45,-20.25 323.83,-70.86 661.16,-152.94 -15.72,287.86 -26.98,598.21 -32.59,931.04l747.74 0c-17.99,455.41 -25.86,756.76 -25.86,904.06l-755.61 0 -39.35 825.32c-4.5,122.55 -6.76,201.28 -6.76,237.26 0,105.68 11.26,193.41 34.85,264.23 22.51,69.71 64.1,120.32 122.58,151.79 58.45,30.36 122.55,46.11 193.41,46.11 52.84,0 107.94,-3.38 165.28,-11.23 57.34,-7.88 158.55,-30.39 304.73,-69.74zm3682.5 -26.98c-28.09,131.57 -82.08,448.65 -161.9,951.29 -255.24,51.72 -470.02,85.43 -644.32,102.3 -174.27,16.87 -349.7,25.86 -528.47,25.86 -262,0 -503.75,-17.99 -723.02,-53.96 -220.39,-36 -410.41,-101.22 -570.08,-193.41 -159.67,-91.08 -293.48,-205.78 -401.42,-342.97 -107.94,-137.16 -190.03,-300.21 -246.25,-489.12 -56.22,-188.91 -84.35,-383.44 -84.35,-582.46 0,-281.1 56.22,-556.59 168.66,-825.32 111.33,-268.76 256.39,-479.01 432.93,-629.68 177.65,-151.79 381.17,-259.74 611.7,-322.72 230.5,-64.1 467.75,-95.57 709.5,-95.57 249.63,0 489.12,29.24 716.26,87.7 228.26,57.34 420.55,159.67 579.08,303.62 158.55,145.03 270.99,308.08 338.47,490.23 66.33,182.15 100.07,378.94 100.07,589.22 0,125.93 -13.49,264.23 -40.47,418.29l-2317.48 3.35c-2.23,34.89 -3.35,66.36 -3.35,95.6 0,236.11 85.43,410.41 255.24,522.86 169.78,111.33 376.68,167.55 621.81,167.55 145.06,0 311.46,-16.87 498.11,-50.61 185.53,-33.74 416.06,-91.08 689.29,-172.04zm-2035.23 -1065.96l1090.71 0c2.26,-37.12 3.38,-68.59 3.38,-95.57 0,-113.59 -20.25,-211.39 -60.72,-292.36 -41.62,-80.97 -100.07,-139.42 -175.42,-176.54 -76.44,-37.09 -161.9,-56.22 -256.36,-56.22 -66.36,0 -129.31,10.11 -191.14,31.47 -61.87,20.25 -118.09,51.72 -167.55,92.22 -49.49,40.47 -91.08,86.58 -123.7,139.42 -32.62,51.72 -57.34,103.45 -73.09,151.79 -14.61,49.49 -30.36,118.09 -46.11,205.78zm2735.78 1997c-8.99,-96.69 -16.87,-199.02 -25.86,-305.85 -8.99,-106.83 -22.48,-254.13 -42.73,-440.77l-25.86 -238.37c212.51,84.32 394.69,147.3 547.6,187.76 152.91,41.62 294.59,61.83 422.79,61.83 107.94,0 194.52,-10.11 260.89,-29.21 67.45,-20.25 115.79,-48.38 146.15,-85.46 30.36,-37.12 46.11,-75.35 46.11,-114.71 0,-35.97 -11.26,-69.71 -34.85,-104.56 -22.48,-33.74 -74.21,-79.82 -155.17,-139.42 -178.77,-131.57 -336.21,-251.89 -472.25,-359.84 -136.07,-106.8 -238.4,-202.4 -307,-286.72 -68.56,-83.2 -121.43,-173.16 -157.41,-269.88 -35.97,-96.69 -53.99,-196.76 -53.99,-299.09 0,-183.3 51.72,-353.08 156.32,-511.63 103.45,-157.41 257.47,-272.11 459.87,-344.05 202.4,-70.86 449.8,-106.83 741.01,-106.83 304.73,0 692.67,40.47 1166.03,121.43l53.99 917.55c-264.23,-103.45 -518.36,-155.17 -763.49,-155.17 -172.04,0 -297.97,17.99 -375.56,52.84 -77.59,35.97 -115.82,89.96 -115.82,164.17 0,23.6 4.5,47.23 13.49,68.59 7.88,22.48 24.75,44.96 47.23,69.71 22.48,23.63 51.72,48.34 85.46,74.21 33.74,24.75 115.82,83.23 247.36,175.42 131.57,92.19 233.88,168.66 308.11,228.26 122.55,96.69 215.89,185.53 281.1,267.61 64.1,83.2 113.56,170.89 147.3,264.23 33.74,93.34 50.61,191.14 50.61,294.59 0,156.32 -38.24,299.12 -113.59,429.55 -75.32,131.54 -190.03,240.64 -342.94,328.33 -151.79,87.7 -317.11,148.44 -495.88,183.3 -177.65,33.71 -360.95,50.58 -549.87,50.58 -127.05,0 -286.72,-11.23 -479.01,-32.59 -192.26,-22.48 -414.91,-60.72 -670.15,-115.82z"/>
 </g>
</svg>
