<?xml version="1.0" encoding="UTF-8"?>
<!DOCTYPE svg PUBLIC "-//W3C//DTD SVG 1.1//EN" "http://www.w3.org/Graphics/SVG/1.1/DTD/svg11.dtd">
<!-- Creator: CorelDRAW 2020 (64 Bit) -->
<svg xmlns="http://www.w3.org/2000/svg" xml:space="preserve" width="38.4949mm" height="38.489mm" version="1.1" style="shape-rendering:geometricPrecision; text-rendering:geometricPrecision; image-rendering:optimizeQuality; fill-rule:evenodd; clip-rule:evenodd"
viewBox="0 0 3914.5 3913.9"
 xmlns:xlink="http://www.w3.org/1999/xlink"
 xmlns:xodm="http://www.corel.com/coreldraw/odm/2003">
 <defs>
  <style type="text/css">
   <![CDATA[
    .fil0 {fill:#2E4B85}
    .fil3 {fill:url(#id0)}
    .fil2 {fill:url(#id1)}
    .fil4 {fill:url(#id2)}
    .fil1 {fill:url(#id3)}
   ]]>
  </style>
  <linearGradient id="id0" gradientUnits="userSpaceOnUse" x1="2658.64" y1="2453.92" x2="2128.26" y2="14.13">
   <stop offset="0" style="stop-opacity:1; stop-color:#6699FF"/>
   <stop offset="1" style="stop-opacity:1; stop-color:#2E4B85"/>
  </linearGradient>
  <linearGradient id="id1" gradientUnits="userSpaceOnUse" x1="1113.57" y1="1534.06" x2="1716.09" y2="784.82">
   <stop offset="0" style="stop-opacity:1; stop-color:#2E4B85"/>
   <stop offset="0.415686" style="stop-opacity:1; stop-color:#2E4B85"/>
   <stop offset="0.501961" style="stop-opacity:1; stop-color:#2E4B85"/>
   <stop offset="1" style="stop-opacity:1; stop-color:black"/>
  </linearGradient>
  <linearGradient id="id2" gradientUnits="userSpaceOnUse" x1="1786.23" y1="3899.78" x2="1255.86" y2="1459.98">
   <stop offset="0" style="stop-opacity:1; stop-color:#2E4B85"/>
   <stop offset="1" style="stop-opacity:1; stop-color:#6699FF"/>
  </linearGradient>
  <linearGradient id="id3" gradientUnits="userSpaceOnUse" xlink:href="#id1" x1="2800.93" y1="2379.85" x2="2198.41" y2="3129.09">
  </linearGradient>
 </defs>
 <g id="Camada_x0020_1">
  <metadata id="CorelCorpID_0Corel-Layer"/>
  <g id="_2130893851040">
   <path class="fil0" d="M1957.24 2679.89l361.63 361.62c198.89,198.89 524.33,198.89 723.21,0l723.24 -723.23c198.89,-198.89 198.9,-524.34 0.01,-723.23l-0.01 -0.01c-198.89,-198.88 -524.34,-198.88 -723.23,0.01l-1084.85 1084.85z"/>
   <path class="fil1" d="M1957.24 2679.89l361.62 361.62c198.89,198.89 524.34,198.89 723.23,0l0 0 -723.23 -723.23 -361.62 361.62z"/>
   <path class="fil0" d="M1957.24 1234.02l-361.62 -361.63c-198.89,-198.88 -524.33,-198.88 -723.22,0l-723.24 723.24c-198.88,198.89 -198.89,524.34 0,723.22l0.01 0.02c198.88,198.88 524.34,198.88 723.22,-0.01l1084.85 -1084.85z"/>
   <path class="fil2" d="M1957.25 1234.02l-361.63 -361.62c-198.89,-198.89 -524.33,-198.89 -723.22,0l-0.01 0 723.23 723.23 361.63 -361.62z"/>
   <path class="fil3" d="M1234.02 510.79l361.61 -361.62c3.11,-3.1 6.24,-6.16 9.42,-9.17 3.17,-3.01 6.37,-5.98 9.6,-8.89 3.22,-2.92 6.48,-5.78 9.76,-8.59 3.28,-2.82 6.6,-5.58 9.93,-8.31 3.35,-2.72 6.71,-5.39 10.11,-8.01 3.4,-2.62 6.8,-5.2 10.25,-7.72 3.44,-2.52 6.91,-4.99 10.4,-7.42l0 -0.01c3.5,-2.43 7.01,-4.8 10.56,-7.13 3.54,-2.34 7.1,-4.62 10.69,-6.85 3.58,-2.23 7.19,-4.41 10.82,-6.55 3.63,-2.15 7.28,-4.23 10.95,-6.26 3.67,-2.04 7.36,-4.03 11.07,-5.97l0 -0.01c3.71,-1.94 7.43,-3.83 11.19,-5.67l0 -0.01c3.75,-1.84 7.51,-3.63 11.3,-5.38l0 -0.01c3.78,-1.75 7.59,-3.44 11.4,-5.09l0 0c3.82,-1.65 7.65,-3.24 11.5,-4.8l0 -0.01c3.85,-1.56 7.71,-3.05 11.59,-4.5l0 -0.01c3.88,-1.45 7.77,-2.86 11.68,-4.22l0 0c3.9,-1.36 7.83,-2.67 11.76,-3.94 3.95,-1.26 7.88,-2.47 11.84,-3.64 3.96,-1.17 7.93,-2.28 11.91,-3.35 3.99,-1.08 7.97,-2.09 11.97,-3.06 4,-0.98 8.01,-1.89 12.03,-2.77 4.02,-0.87 8.04,-1.7 12.08,-2.48l0 0c4.04,-0.78 8.07,-1.5 12.12,-2.19 4.06,-0.68 8.1,-1.31 12.17,-1.89 4.06,-0.58 8.12,-1.12 12.2,-1.6l0 -0.01c4.07,-0.49 8.15,-0.92 12.23,-1.31 4.08,-0.39 8.17,-0.72 12.25,-1.02 4.09,-0.28 8.18,-0.54 12.26,-0.73 4.09,-0.19 8.19,-0.34 12.28,-0.43 4.1,-0.1 8.2,-0.15 12.29,-0.15 4.09,0 8.19,0.05 12.28,0.15 4.1,0.09 8.2,0.23 12.28,0.43 4.1,0.19 8.19,0.45 12.26,0.73 4.09,0.29 8.18,0.63 12.25,1.02 4.09,0.4 8.17,0.82 12.23,1.31l0 0.01c4.08,0.48 8.15,1.02 12.2,1.6 4.07,0.58 8.11,1.21 12.17,1.89 4.05,0.68 8.08,1.4 12.12,2.19l0 0c4.04,0.78 8.06,1.61 12.08,2.48 4.02,0.87 8.03,1.79 12.03,2.77 4.01,0.97 7.98,1.98 11.97,3.06 3.98,1.07 7.95,2.18 11.91,3.35 3.96,1.17 7.9,2.38 11.84,3.64 3.93,1.26 7.85,2.57 11.76,3.94l0 0c3.92,1.36 7.8,2.77 11.68,4.22l0 0.01c3.88,1.45 7.74,2.95 11.59,4.5l0 0.01c3.85,1.56 7.69,3.15 11.5,4.8l0 0c3.82,1.66 7.62,3.35 11.4,5.09l0 0.01c3.78,1.75 7.55,3.54 11.3,5.38l0 0.01c3.75,1.84 7.47,3.73 11.19,5.67l0 0.01c3.71,1.94 7.4,3.93 11.07,5.97 3.67,2.03 7.32,4.12 10.95,6.26 3.62,2.14 7.24,4.32 10.82,6.55 3.59,2.24 7.15,4.51 10.69,6.85 3.55,2.33 7.06,4.7 10.56,7.13l0 0.01c3.49,2.43 6.96,4.9 10.4,7.42 3.45,2.52 6.86,5.09 10.25,7.72 3.4,2.62 6.76,5.3 10.11,8.01 3.34,2.73 6.65,5.49 9.93,8.31 3.28,2.82 6.54,5.67 9.76,8.59 3.23,2.92 6.43,5.87 9.6,8.89 3.17,3.01 6.3,6.07 9.42,9.17l1446.45 1446.46c198.89,198.89 198.89,524.34 0,723.23l0 0c-198.88,198.89 -524.34,198.89 -723.23,0l-1084.84 -1084.85 -361.62 -361.62 -0.04 -0.04c-198.9,-198.84 -524.32,-198.83 -723.2,0.04l361.63 -361.62z"/>
   <path class="fil4" d="M2680.48 3403.12l-361.62 361.61c-3.11,3.11 -6.24,6.17 -9.42,9.18 -3.16,3.01 -6.37,5.97 -9.59,8.89 -3.22,2.91 -6.49,5.78 -9.77,8.59 -3.28,2.82 -6.59,5.58 -9.93,8.3 -3.34,2.73 -6.71,5.39 -10.1,8.01 -3.4,2.62 -6.81,5.2 -10.25,7.73 -3.45,2.52 -6.91,4.99 -10.41,7.42l0 0c-3.49,2.43 -7.01,4.81 -10.55,7.14 -3.54,2.33 -7.11,4.62 -10.69,6.84 -3.59,2.24 -7.2,4.42 -10.83,6.56 -3.62,2.14 -7.27,4.22 -10.94,6.26 -3.67,2.04 -7.36,4.03 -11.07,5.97l0 0.01c-3.71,1.94 -7.44,3.82 -11.19,5.67l0 0c-3.75,1.85 -7.51,3.64 -11.3,5.39l0 0c-3.79,1.75 -7.59,3.45 -11.4,5.09l0 0.01c-3.82,1.65 -7.66,3.24 -11.5,4.8l0 0c-3.85,1.56 -7.72,3.06 -11.6,4.51l0 0.01c-3.87,1.45 -7.77,2.86 -11.67,4.21l0 0.01c-3.9,1.36 -7.83,2.66 -11.77,3.94 -3.94,1.26 -7.87,2.47 -11.84,3.64 -3.96,1.16 -7.93,2.28 -11.91,3.35 -3.99,1.07 -7.96,2.08 -11.97,3.06 -4,0.97 -8,1.89 -12.02,2.77 -4.03,0.87 -8.05,1.7 -12.08,2.47l0 0.01c-4.05,0.77 -8.07,1.5 -12.13,2.19 -4.05,0.67 -8.1,1.3 -12.16,1.89 -4.06,0.58 -8.14,1.11 -12.2,1.6l0 0.01c-4.08,0.48 -8.16,0.92 -12.23,1.3 -4.08,0.4 -8.17,0.73 -12.25,1.02 -4.09,0.29 -8.18,0.54 -12.27,0.73 -4.09,0.19 -8.19,0.35 -12.28,0.44 -4.09,0.1 -8.19,0.15 -12.28,0.15 -4.1,0 -8.2,-0.05 -12.28,-0.15 -4.1,-0.09 -8.2,-0.24 -12.28,-0.44 -4.1,-0.19 -8.19,-0.44 -12.27,-0.73 -4.09,-0.28 -8.18,-0.62 -12.25,-1.02 -4.08,-0.39 -8.17,-0.82 -12.23,-1.3l0 -0.01c-4.07,-0.49 -8.15,-1.02 -12.2,-1.6 -4.06,-0.59 -8.11,-1.22 -12.16,-1.89 -4.06,-0.68 -8.09,-1.41 -12.13,-2.19l0 -0.01c-4.03,-0.77 -8.05,-1.6 -12.08,-2.47 -4.02,-0.87 -8.02,-1.8 -12.02,-2.77 -4.01,-0.98 -7.99,-1.99 -11.97,-3.06 -3.98,-1.07 -7.95,-2.19 -11.91,-3.35 -3.97,-1.17 -7.9,-2.38 -11.84,-3.64 -3.94,-1.27 -7.86,-2.57 -11.77,-3.94l0 -0.01c-3.9,-1.35 -7.8,-2.76 -11.67,-4.21l0 -0.01c-3.88,-1.45 -7.75,-2.96 -11.6,-4.51l0 0c-3.84,-1.56 -7.68,-3.15 -11.5,-4.8l0 -0.01c-3.81,-1.65 -7.61,-3.35 -11.4,-5.09l0 0c-3.78,-1.75 -7.55,-3.54 -11.3,-5.39l0 0c-3.74,-1.85 -7.47,-3.73 -11.19,-5.67l0 -0.01c-3.71,-1.94 -7.4,-3.93 -11.07,-5.97 -3.67,-2.04 -7.31,-4.13 -10.94,-6.26 -3.63,-2.14 -7.24,-4.32 -10.83,-6.56 -3.58,-2.23 -7.15,-4.51 -10.69,-6.84 -3.54,-2.33 -7.06,-4.71 -10.55,-7.14l0 0c-3.5,-2.43 -6.97,-4.9 -10.41,-7.42 -3.44,-2.53 -6.85,-5.1 -10.25,-7.73 -3.4,-2.62 -6.76,-5.29 -10.1,-8.01 -3.35,-2.72 -6.65,-5.48 -9.93,-8.3 -3.28,-2.82 -6.55,-5.68 -9.77,-8.59 -3.22,-2.92 -6.43,-5.88 -9.59,-8.89 -3.17,-3.01 -6.3,-6.07 -9.42,-9.18l-1446.46 -1446.45c-198.89,-198.89 -198.89,-524.35 0,-723.24l0 0c198.89,-198.88 524.34,-198.88 723.23,0.01l1084.85 1084.85 361.62 361.61 0.04 0.04c198.89,198.85 524.32,198.84 723.19,-0.04l-361.62 361.63z"/>
  </g>
 </g>
</svg>
